<svg xmlns="http://www.w3.org/2000/svg" width="32" height="32" fill-rule="evenodd" xmlns:v="https://vecta.io/nano"><path d="M8.717 0h14.566c3.031 0 4.13.316 5.238.908a6.18 6.18 0 0 1 2.57 2.57c.593 1.108.908 2.207.908 5.238v14.566c0 3.031-.316 4.13-.908 5.238a6.18 6.18 0 0 1-2.57 2.57c-1.108.593-2.207.908-5.238.908H8.717c-3.031 0-4.13-.316-5.238-.908a6.18 6.18 0 0 1-2.57-2.57C.316 27.413 0 26.314 0 23.283V8.717c0-3.031.316-4.13.908-5.238a6.18 6.18 0 0 1 2.57-2.57C4.587.316 5.686 0 8.717 0z" fill="#000"/><g fill-rule="nonzero" fill="#fff"><path d="M4.183 0C2.605 0 2.105.502 2.105 2.113v1.461c0 .576-.519 1.011-1.558 1.304A.75.75 0 0 0 0 5.6a.75.75 0 0 0 .547.72c1.039.29 1.558.725 1.558 1.305v1.461c0 1.611.5 2.113 2.079 2.113h.437c.247 0 .447-.2.447-.447s-.2-.447-.447-.447H4.36h0c-.974 0-1.163-.228-1.163-1.363V7.201c0-.913-.682-1.52-2.001-1.552v-.104c1.319-.026 2.001-.633 2.001-1.546V2.257c0-1.135.188-1.363 1.163-1.363h.261c.247 0 .447-.2.447-.447S4.867 0 4.62 0h-.437 0zm15.634 11.2c1.578 0 2.079-.502 2.079-2.113V7.625c0-.576.519-1.011 1.558-1.304a.75.75 0 0 0 0-1.442c-1.039-.29-1.558-.725-1.558-1.305V2.113c0-1.611-.5-2.113-2.079-2.113h-.437c-.247 0-.447.2-.447.447s.2.447.447.447h.261 0c.974 0 1.163.228 1.163 1.363v1.742c0 .913.682 1.52 2.001 1.552v.104c-1.319.026-2.001.633-2.001 1.546v1.742c0 1.135-.188 1.363-1.163 1.363h-.261c-.247 0-.447.2-.447.447s.2.447.447.447h.437 0z" transform="matrix(.707107 -.707107 .707107 .707107 3.554921 20.525483)"/><path d="M4.183 2.933c-1.578 0-2.079.502-2.079 2.113v1.461c0 .576-.519 1.011-1.558 1.304a.75.75 0 0 0 .001 1.442c1.039.29 1.558.725 1.558 1.305v1.461c0 1.611.5 2.113 2.079 2.113h.437c.247 0 .447-.2.447-.447s-.2-.447-.447-.447H4.36h0c-.974 0-1.163-.228-1.163-1.363v-1.742c0-.913-.682-1.52-2.001-1.552v-.104c1.319-.026 2.001-.633 2.001-1.546V5.19c0-1.135.188-1.363 1.163-1.363h.261c.247 0 .447-.2.447-.447s-.2-.447-.447-.447h-.437 0zm15.634 11.2c1.578 0 2.079-.502 2.079-2.113v-1.461c0-.576.519-1.011 1.558-1.304a.75.75 0 0 0 0-1.442c-1.039-.29-1.558-.725-1.558-1.305V5.046c0-1.611-.5-2.113-2.079-2.113h-.437c-.247 0-.447.2-.447.447s.2.447.447.447h.261 0c.974 0 1.163.228 1.163 1.363v1.742c0 .913.682 1.52 2.001 1.552v.104c-1.319.026-2.001.633-2.001 1.546v1.742c0 1.135-.188 1.363-1.163 1.363h-.261c-.247 0-.447.2-.447.447s.2.447.447.447h.437 0zm-9.477 1.226c.916.916 2.409.911 3.323-.003.907-.907.905-2.393-.011-3.309l-.785-.785 1.869-1.869.785.785c.916.916 2.402.918 3.302.018a2.35 2.35 0 0 0 .003-3.323c-.895-.895-2.388-.89-3.302.024l-.763.763-1.894-1.894.763-.763c.914-.914.926-2.4.024-3.302a2.34 2.34 0 0 0-3.316.01c-.907.907-.898 2.386.011 3.295l.778.778-1.869 1.869-.778-.778c-.916-.916-2.395-.911-3.302-.004-.914.914-.919 2.407-.01 3.316.888.888 2.395.883 3.302-.024l.77-.77 1.894 1.894-.77.77c-.907.907-.912 2.413-.024 3.302zM12 4.897l-.786-.786c-.438-.438-.446-1.153-.014-1.585.446-.446 1.154-.445 1.599 0 .431.431.425 1.147-.014 1.585L12 4.897zm4.332 4.332l-.789-.789.786-.786c.439-.439 1.16-.44 1.589-.011a1.12 1.12 0 0 1-.004 1.596c-.432.432-1.145.426-1.582-.011zM12 10.305L10.135 8.44 12 6.575l1.865 1.865L12 10.305zm-.889 4.146a1.13 1.13 0 0 1 .003-1.582l.793-.793.789.789c.436.436.442 1.15.003 1.589-.446.446-1.146.44-1.589-.003zM5.993 9.333c-.445-.445-.453-1.146-.007-1.592a1.13 1.13 0 0 1 1.592.007l.786.786-.793.793c-.432.432-1.147.438-1.578.007z" transform="matrix(.707107 .707107 -.707107 .707107 13.548696 1.480741)"/></g></svg>